<mxfile host="app.diagrams.net" modified="2022-02-19T17:19:09.104Z" agent="5.0 (Windows NT 10.0; Win64; x64) AppleWebKit/537.36 (KHTML, like Gecko) Chrome/98.0.4758.102 Safari/537.36" etag="vW5hHvWuhfQaJ3PjMkc6" version="16.2.7" type="github">
  <diagram id="k0uZgZyYwI2Upb_hqEyq" name="Page-1">
    <mxGraphModel dx="1422" dy="762" grid="1" gridSize="10" guides="1" tooltips="1" connect="1" arrows="1" fold="1" page="1" pageScale="1" pageWidth="850" pageHeight="1100" math="0" shadow="0">
      <root>
        <mxCell id="0" />
        <mxCell id="1" parent="0" />
        <mxCell id="zKvZWbMJzwQfPkqD02Oh-1" value="App" style="rounded=0;whiteSpace=wrap;html=1;" vertex="1" parent="1">
          <mxGeometry x="320" y="70" width="200" height="80" as="geometry" />
        </mxCell>
        <mxCell id="zKvZWbMJzwQfPkqD02Oh-14" value="Input Container" style="swimlane;" vertex="1" parent="1">
          <mxGeometry x="120" y="240" width="200" height="240" as="geometry" />
        </mxCell>
        <mxCell id="zKvZWbMJzwQfPkqD02Oh-6" value="Header" style="rounded=1;whiteSpace=wrap;html=1;arcSize=50;" vertex="1" parent="zKvZWbMJzwQfPkqD02Oh-14">
          <mxGeometry x="40" y="40" width="120" height="20" as="geometry" />
        </mxCell>
        <mxCell id="zKvZWbMJzwQfPkqD02Oh-15" value="Input Form" style="swimlane;fontStyle=0;childLayout=stackLayout;horizontal=1;startSize=30;horizontalStack=0;resizeParent=1;resizeParentMax=0;resizeLast=0;collapsible=1;marginBottom=0;swimlaneLine=1;rounded=0;shadow=0;sketch=0;glass=0;" vertex="1" parent="zKvZWbMJzwQfPkqD02Oh-14">
          <mxGeometry x="20" y="70" width="160" height="120" as="geometry">
            <mxRectangle x="330" y="330" width="60" height="30" as="alternateBounds" />
          </mxGeometry>
        </mxCell>
        <mxCell id="zKvZWbMJzwQfPkqD02Oh-16" value="Input 1" style="text;strokeColor=none;fillColor=none;align=left;verticalAlign=middle;spacingLeft=4;spacingRight=4;overflow=hidden;points=[[0,0.5],[1,0.5]];portConstraint=eastwest;rotatable=0;" vertex="1" parent="zKvZWbMJzwQfPkqD02Oh-15">
          <mxGeometry y="30" width="160" height="30" as="geometry" />
        </mxCell>
        <mxCell id="zKvZWbMJzwQfPkqD02Oh-17" value="Input 2" style="text;strokeColor=none;fillColor=none;align=left;verticalAlign=middle;spacingLeft=4;spacingRight=4;overflow=hidden;points=[[0,0.5],[1,0.5]];portConstraint=eastwest;rotatable=0;" vertex="1" parent="zKvZWbMJzwQfPkqD02Oh-15">
          <mxGeometry y="60" width="160" height="30" as="geometry" />
        </mxCell>
        <mxCell id="zKvZWbMJzwQfPkqD02Oh-18" value="Input 3" style="text;strokeColor=none;fillColor=none;align=left;verticalAlign=middle;spacingLeft=4;spacingRight=4;overflow=hidden;points=[[0,0.5],[1,0.5]];portConstraint=eastwest;rotatable=0;" vertex="1" parent="zKvZWbMJzwQfPkqD02Oh-15">
          <mxGeometry y="90" width="160" height="30" as="geometry" />
        </mxCell>
        <mxCell id="zKvZWbMJzwQfPkqD02Oh-44" value="Submit" style="rounded=1;whiteSpace=wrap;html=1;shadow=0;glass=0;sketch=0;" vertex="1" parent="zKvZWbMJzwQfPkqD02Oh-14">
          <mxGeometry x="60" y="210" width="80" height="20" as="geometry" />
        </mxCell>
        <mxCell id="zKvZWbMJzwQfPkqD02Oh-20" value="Output Container" style="swimlane;" vertex="1" parent="1">
          <mxGeometry x="520" y="240" width="200" height="200" as="geometry" />
        </mxCell>
        <mxCell id="zKvZWbMJzwQfPkqD02Oh-21" value="Header" style="rounded=1;whiteSpace=wrap;html=1;arcSize=50;" vertex="1" parent="zKvZWbMJzwQfPkqD02Oh-20">
          <mxGeometry x="40" y="40" width="120" height="20" as="geometry" />
        </mxCell>
        <mxCell id="zKvZWbMJzwQfPkqD02Oh-22" value="Passwords" style="swimlane;fontStyle=0;childLayout=stackLayout;horizontal=1;startSize=30;horizontalStack=0;resizeParent=1;resizeParentMax=0;resizeLast=0;collapsible=1;marginBottom=0;swimlaneLine=1;rounded=0;shadow=0;sketch=0;glass=0;" vertex="1" parent="zKvZWbMJzwQfPkqD02Oh-20">
          <mxGeometry x="20" y="70" width="160" height="120" as="geometry">
            <mxRectangle x="330" y="330" width="60" height="30" as="alternateBounds" />
          </mxGeometry>
        </mxCell>
        <mxCell id="zKvZWbMJzwQfPkqD02Oh-23" value="Password 1" style="text;strokeColor=none;fillColor=none;align=left;verticalAlign=middle;spacingLeft=4;spacingRight=4;overflow=hidden;points=[[0,0.5],[1,0.5]];portConstraint=eastwest;rotatable=0;" vertex="1" parent="zKvZWbMJzwQfPkqD02Oh-22">
          <mxGeometry y="30" width="160" height="30" as="geometry" />
        </mxCell>
        <mxCell id="zKvZWbMJzwQfPkqD02Oh-24" value="Password 2" style="text;strokeColor=none;fillColor=none;align=left;verticalAlign=middle;spacingLeft=4;spacingRight=4;overflow=hidden;points=[[0,0.5],[1,0.5]];portConstraint=eastwest;rotatable=0;" vertex="1" parent="zKvZWbMJzwQfPkqD02Oh-22">
          <mxGeometry y="60" width="160" height="30" as="geometry" />
        </mxCell>
        <mxCell id="zKvZWbMJzwQfPkqD02Oh-25" value="Password 3" style="text;strokeColor=none;fillColor=none;align=left;verticalAlign=middle;spacingLeft=4;spacingRight=4;overflow=hidden;points=[[0,0.5],[1,0.5]];portConstraint=eastwest;rotatable=0;" vertex="1" parent="zKvZWbMJzwQfPkqD02Oh-22">
          <mxGeometry y="90" width="160" height="30" as="geometry" />
        </mxCell>
        <mxCell id="zKvZWbMJzwQfPkqD02Oh-26" value="" style="endArrow=classic;html=1;rounded=0;exitX=0.5;exitY=1;exitDx=0;exitDy=0;entryX=0.5;entryY=0;entryDx=0;entryDy=0;" edge="1" parent="1" source="zKvZWbMJzwQfPkqD02Oh-1" target="zKvZWbMJzwQfPkqD02Oh-14">
          <mxGeometry width="50" height="50" relative="1" as="geometry">
            <mxPoint x="370" y="420" as="sourcePoint" />
            <mxPoint x="420" y="370" as="targetPoint" />
            <Array as="points">
              <mxPoint x="420" y="200" />
              <mxPoint x="220" y="200" />
            </Array>
          </mxGeometry>
        </mxCell>
        <mxCell id="zKvZWbMJzwQfPkqD02Oh-27" value="" style="endArrow=classic;html=1;rounded=0;entryX=0.5;entryY=0;entryDx=0;entryDy=0;" edge="1" parent="1" target="zKvZWbMJzwQfPkqD02Oh-20">
          <mxGeometry width="50" height="50" relative="1" as="geometry">
            <mxPoint x="420" y="150" as="sourcePoint" />
            <mxPoint x="230" y="250" as="targetPoint" />
            <Array as="points">
              <mxPoint x="420" y="200" />
              <mxPoint x="620" y="200" />
            </Array>
          </mxGeometry>
        </mxCell>
        <mxCell id="zKvZWbMJzwQfPkqD02Oh-28" value="Generated Passwords&lt;br&gt;(Array of strings)" style="rounded=1;whiteSpace=wrap;html=1;shadow=0;glass=0;sketch=0;arcSize=50;fillColor=#ffe6cc;strokeColor=#d79b00;" vertex="1" parent="1">
          <mxGeometry x="540" y="96" width="200" height="34" as="geometry" />
        </mxCell>
        <mxCell id="zKvZWbMJzwQfPkqD02Oh-29" value="States" style="text;html=1;strokeColor=none;fillColor=none;align=center;verticalAlign=middle;whiteSpace=wrap;rounded=0;shadow=0;glass=0;sketch=0;" vertex="1" parent="1">
          <mxGeometry x="610" y="70" width="60" height="30" as="geometry" />
        </mxCell>
        <mxCell id="zKvZWbMJzwQfPkqD02Oh-30" value="" style="endArrow=classic;html=1;rounded=0;exitX=1;exitY=0.5;exitDx=0;exitDy=0;entryX=1;entryY=0.5;entryDx=0;entryDy=0;" edge="1" parent="1" source="zKvZWbMJzwQfPkqD02Oh-28" target="zKvZWbMJzwQfPkqD02Oh-20">
          <mxGeometry width="50" height="50" relative="1" as="geometry">
            <mxPoint x="370" y="410" as="sourcePoint" />
            <mxPoint x="420" y="360" as="targetPoint" />
            <Array as="points">
              <mxPoint x="790" y="113" />
              <mxPoint x="790" y="340" />
            </Array>
          </mxGeometry>
        </mxCell>
        <mxCell id="zKvZWbMJzwQfPkqD02Oh-33" value="Prop" style="edgeLabel;html=1;align=center;verticalAlign=middle;resizable=0;points=[];" vertex="1" connectable="0" parent="zKvZWbMJzwQfPkqD02Oh-30">
          <mxGeometry x="0.1186" y="3" relative="1" as="geometry">
            <mxPoint x="-3" y="-34" as="offset" />
          </mxGeometry>
        </mxCell>
        <mxCell id="zKvZWbMJzwQfPkqD02Oh-34" value="formObject" style="rounded=1;whiteSpace=wrap;html=1;shadow=0;glass=0;sketch=0;arcSize=50;fillColor=#ffe6cc;strokeColor=#d79b00;" vertex="1" parent="1">
          <mxGeometry x="120" y="626" width="200" height="20" as="geometry" />
        </mxCell>
        <mxCell id="zKvZWbMJzwQfPkqD02Oh-35" value="States" style="text;html=1;strokeColor=none;fillColor=none;align=center;verticalAlign=middle;whiteSpace=wrap;rounded=0;shadow=0;glass=0;sketch=0;" vertex="1" parent="1">
          <mxGeometry x="190" y="600" width="60" height="30" as="geometry" />
        </mxCell>
        <mxCell id="zKvZWbMJzwQfPkqD02Oh-36" value="setState(Generated Passwords)" style="rounded=1;whiteSpace=wrap;html=1;shadow=0;glass=0;sketch=0;arcSize=50;fillColor=#d5e8d4;strokeColor=#82b366;" vertex="1" parent="1">
          <mxGeometry x="170" y="170" width="190" height="20" as="geometry" />
        </mxCell>
        <mxCell id="zKvZWbMJzwQfPkqD02Oh-37" value="setState(Generated Passwords)" style="rounded=1;whiteSpace=wrap;html=1;shadow=0;glass=0;sketch=0;arcSize=50;fillColor=#d5e8d4;strokeColor=#82b366;" vertex="1" parent="1">
          <mxGeometry x="125" y="720" width="190" height="20" as="geometry" />
        </mxCell>
        <mxCell id="zKvZWbMJzwQfPkqD02Oh-38" value="Prop" style="text;html=1;align=center;verticalAlign=middle;resizable=0;points=[];autosize=1;strokeColor=none;fillColor=none;" vertex="1" parent="1">
          <mxGeometry x="240" y="140" width="40" height="20" as="geometry" />
        </mxCell>
        <mxCell id="zKvZWbMJzwQfPkqD02Oh-40" value="" style="endArrow=classic;html=1;rounded=0;exitX=0;exitY=0.5;exitDx=0;exitDy=0;entryX=0;entryY=0.5;entryDx=0;entryDy=0;" edge="1" parent="1" source="zKvZWbMJzwQfPkqD02Oh-37" target="zKvZWbMJzwQfPkqD02Oh-1">
          <mxGeometry width="50" height="50" relative="1" as="geometry">
            <mxPoint x="370" y="390" as="sourcePoint" />
            <mxPoint x="420" y="340" as="targetPoint" />
            <Array as="points">
              <mxPoint x="80" y="730" />
              <mxPoint x="80" y="280" />
              <mxPoint x="80" y="110" />
            </Array>
          </mxGeometry>
        </mxCell>
        <mxCell id="zKvZWbMJzwQfPkqD02Oh-41" value="Func: generatePassword(formObject)" style="rounded=1;whiteSpace=wrap;html=1;shadow=0;glass=0;sketch=0;arcSize=50;fillColor=#fff2cc;strokeColor=#d6b656;" vertex="1" parent="1">
          <mxGeometry x="117.5" y="670" width="205" height="20" as="geometry" />
        </mxCell>
        <mxCell id="zKvZWbMJzwQfPkqD02Oh-42" value="" style="endArrow=classic;html=1;rounded=0;exitX=0.5;exitY=1;exitDx=0;exitDy=0;entryX=0.5;entryY=0;entryDx=0;entryDy=0;" edge="1" parent="1" source="zKvZWbMJzwQfPkqD02Oh-34" target="zKvZWbMJzwQfPkqD02Oh-41">
          <mxGeometry width="50" height="50" relative="1" as="geometry">
            <mxPoint x="370" y="540" as="sourcePoint" />
            <mxPoint x="420" y="490" as="targetPoint" />
          </mxGeometry>
        </mxCell>
        <mxCell id="zKvZWbMJzwQfPkqD02Oh-43" value="" style="endArrow=classic;html=1;rounded=0;exitX=0.5;exitY=1;exitDx=0;exitDy=0;entryX=0.5;entryY=0;entryDx=0;entryDy=0;" edge="1" parent="1" source="zKvZWbMJzwQfPkqD02Oh-41" target="zKvZWbMJzwQfPkqD02Oh-37">
          <mxGeometry width="50" height="50" relative="1" as="geometry">
            <mxPoint x="370" y="540" as="sourcePoint" />
            <mxPoint x="400" y="680" as="targetPoint" />
          </mxGeometry>
        </mxCell>
        <mxCell id="zKvZWbMJzwQfPkqD02Oh-45" value="OnFormSubmit&lt;br&gt;generatePassword(formObject)" style="rounded=1;whiteSpace=wrap;html=1;shadow=0;glass=0;sketch=0;arcSize=50;fillColor=#fff2cc;strokeColor=#d6b656;" vertex="1" parent="1">
          <mxGeometry x="125" y="520" width="190" height="30" as="geometry" />
        </mxCell>
        <mxCell id="zKvZWbMJzwQfPkqD02Oh-46" value="" style="endArrow=classic;html=1;rounded=0;exitX=0.5;exitY=1;exitDx=0;exitDy=0;entryX=0.5;entryY=0;entryDx=0;entryDy=0;" edge="1" parent="1" source="zKvZWbMJzwQfPkqD02Oh-44" target="zKvZWbMJzwQfPkqD02Oh-45">
          <mxGeometry width="50" height="50" relative="1" as="geometry">
            <mxPoint x="370" y="480" as="sourcePoint" />
            <mxPoint x="420" y="430" as="targetPoint" />
          </mxGeometry>
        </mxCell>
      </root>
    </mxGraphModel>
  </diagram>
</mxfile>
